# xmcd CD database file
# Copyright (C) 1995-1998 Ti Kan
#
# Track frame offsets:
#	150
#	16207
#	31920
#	48645
#	68245
#	89300
#	108590
#	127102
#	139875
#	160600
#	171820
#	192340
#
# Disc length: 2811 seconds
#
# Revision: 1
# Processed by: cddbd v1.4PL0 Copyright (c) Steve Scherf et al.
# Submitted via: CDex 1.30Release
#
DISCID=a30af90c
DTITLE=Deana Carter - I'm Just A Girl
DYEAR=2003
DGENRE=Country
TTITLE0=I'm Just A Girl
TTITLE1=There's No Limit
TTITLE2=You And Tequila
TTITLE3=Me And The Radio
TTITLE4=Cover Of A Magazine
TTITLE5=Wildflower
TTITLE6=Twice As Worth It
TTITLE7=Eddie
TTITLE8=Waiting
TTITLE9=Liar
TTITLE10=Goodbye Train
TTITLE11=Girls' Night
EXTD=YEAR: 2003 ID3G:   2
EXTT0=
EXTT1=
EXTT2=
EXTT3=
EXTT4=
EXTT5=
EXTT6=
EXTT7=
EXTT8=
EXTT9=
EXTT10=
EXTT11=
PLAYORDER=
